%TF.GenerationSoftware,KiCad,Pcbnew,7.0.10*%
%TF.CreationDate,2024-04-21T18:35:41+05:30*%
%TF.ProjectId,ESDP_Final,45534450-5f46-4696-9e61-6c2e6b696361,rev?*%
%TF.SameCoordinates,Original*%
%TF.FileFunction,Legend,Top*%
%TF.FilePolarity,Positive*%
%FSLAX46Y46*%
G04 Gerber Fmt 4.6, Leading zero omitted, Abs format (unit mm)*
G04 Created by KiCad (PCBNEW 7.0.10) date 2024-04-21 18:35:41*
%MOMM*%
%LPD*%
G01*
G04 APERTURE LIST*
%ADD10C,0.100000*%
%ADD11C,0.150000*%
%ADD12C,0.120000*%
%ADD13C,0.127000*%
%ADD14C,0.200000*%
%ADD15C,0.280000*%
G04 APERTURE END LIST*
D10*
X137032419Y-77912306D02*
X137032419Y-78483734D01*
X137032419Y-78198020D02*
X136032419Y-78198020D01*
X136032419Y-78198020D02*
X136175276Y-78293258D01*
X136175276Y-78293258D02*
X136270514Y-78388496D01*
X136270514Y-78388496D02*
X136318133Y-78483734D01*
X136032419Y-77055163D02*
X136032419Y-77245639D01*
X136032419Y-77245639D02*
X136080038Y-77340877D01*
X136080038Y-77340877D02*
X136127657Y-77388496D01*
X136127657Y-77388496D02*
X136270514Y-77483734D01*
X136270514Y-77483734D02*
X136460990Y-77531353D01*
X136460990Y-77531353D02*
X136841942Y-77531353D01*
X136841942Y-77531353D02*
X136937180Y-77483734D01*
X136937180Y-77483734D02*
X136984800Y-77436115D01*
X136984800Y-77436115D02*
X137032419Y-77340877D01*
X137032419Y-77340877D02*
X137032419Y-77150401D01*
X137032419Y-77150401D02*
X136984800Y-77055163D01*
X136984800Y-77055163D02*
X136937180Y-77007544D01*
X136937180Y-77007544D02*
X136841942Y-76959925D01*
X136841942Y-76959925D02*
X136603847Y-76959925D01*
X136603847Y-76959925D02*
X136508609Y-77007544D01*
X136508609Y-77007544D02*
X136460990Y-77055163D01*
X136460990Y-77055163D02*
X136413371Y-77150401D01*
X136413371Y-77150401D02*
X136413371Y-77340877D01*
X136413371Y-77340877D02*
X136460990Y-77436115D01*
X136460990Y-77436115D02*
X136508609Y-77483734D01*
X136508609Y-77483734D02*
X136603847Y-77531353D01*
X137032419Y-76531353D02*
X136032419Y-76531353D01*
X136032419Y-76531353D02*
X136746704Y-76198020D01*
X136746704Y-76198020D02*
X136032419Y-75864687D01*
X136032419Y-75864687D02*
X137032419Y-75864687D01*
X137032419Y-75388496D02*
X136032419Y-75388496D01*
X136508609Y-75388496D02*
X136508609Y-74817068D01*
X137032419Y-74817068D02*
X136032419Y-74817068D01*
X136365752Y-74436115D02*
X136365752Y-73912306D01*
X136365752Y-73912306D02*
X137032419Y-74436115D01*
X137032419Y-74436115D02*
X137032419Y-73912306D01*
D11*
X160474819Y-82494285D02*
X160474819Y-82970475D01*
X160474819Y-82970475D02*
X159474819Y-82970475D01*
X160474819Y-82160951D02*
X159474819Y-82160951D01*
X159474819Y-82160951D02*
X160189104Y-81827618D01*
X160189104Y-81827618D02*
X159474819Y-81494285D01*
X159474819Y-81494285D02*
X160474819Y-81494285D01*
X159474819Y-81113332D02*
X159474819Y-80494285D01*
X159474819Y-80494285D02*
X159855771Y-80827618D01*
X159855771Y-80827618D02*
X159855771Y-80684761D01*
X159855771Y-80684761D02*
X159903390Y-80589523D01*
X159903390Y-80589523D02*
X159951009Y-80541904D01*
X159951009Y-80541904D02*
X160046247Y-80494285D01*
X160046247Y-80494285D02*
X160284342Y-80494285D01*
X160284342Y-80494285D02*
X160379580Y-80541904D01*
X160379580Y-80541904D02*
X160427200Y-80589523D01*
X160427200Y-80589523D02*
X160474819Y-80684761D01*
X160474819Y-80684761D02*
X160474819Y-80970475D01*
X160474819Y-80970475D02*
X160427200Y-81065713D01*
X160427200Y-81065713D02*
X160379580Y-81113332D01*
X159474819Y-79589523D02*
X159474819Y-80065713D01*
X159474819Y-80065713D02*
X159951009Y-80113332D01*
X159951009Y-80113332D02*
X159903390Y-80065713D01*
X159903390Y-80065713D02*
X159855771Y-79970475D01*
X159855771Y-79970475D02*
X159855771Y-79732380D01*
X159855771Y-79732380D02*
X159903390Y-79637142D01*
X159903390Y-79637142D02*
X159951009Y-79589523D01*
X159951009Y-79589523D02*
X160046247Y-79541904D01*
X160046247Y-79541904D02*
X160284342Y-79541904D01*
X160284342Y-79541904D02*
X160379580Y-79589523D01*
X160379580Y-79589523D02*
X160427200Y-79637142D01*
X160427200Y-79637142D02*
X160474819Y-79732380D01*
X160474819Y-79732380D02*
X160474819Y-79970475D01*
X160474819Y-79970475D02*
X160427200Y-80065713D01*
X160427200Y-80065713D02*
X160379580Y-80113332D01*
X161440952Y-102054819D02*
X160964762Y-102054819D01*
X160964762Y-102054819D02*
X160964762Y-101054819D01*
X161774286Y-101531009D02*
X162107619Y-101531009D01*
X162250476Y-102054819D02*
X161774286Y-102054819D01*
X161774286Y-102054819D02*
X161774286Y-101054819D01*
X161774286Y-101054819D02*
X162250476Y-101054819D01*
X162679048Y-102054819D02*
X162679048Y-101054819D01*
X162679048Y-101054819D02*
X162917143Y-101054819D01*
X162917143Y-101054819D02*
X163060000Y-101102438D01*
X163060000Y-101102438D02*
X163155238Y-101197676D01*
X163155238Y-101197676D02*
X163202857Y-101292914D01*
X163202857Y-101292914D02*
X163250476Y-101483390D01*
X163250476Y-101483390D02*
X163250476Y-101626247D01*
X163250476Y-101626247D02*
X163202857Y-101816723D01*
X163202857Y-101816723D02*
X163155238Y-101911961D01*
X163155238Y-101911961D02*
X163060000Y-102007200D01*
X163060000Y-102007200D02*
X162917143Y-102054819D01*
X162917143Y-102054819D02*
X162679048Y-102054819D01*
X164202857Y-102054819D02*
X163631429Y-102054819D01*
X163917143Y-102054819D02*
X163917143Y-101054819D01*
X163917143Y-101054819D02*
X163821905Y-101197676D01*
X163821905Y-101197676D02*
X163726667Y-101292914D01*
X163726667Y-101292914D02*
X163631429Y-101340533D01*
X137519580Y-91606666D02*
X137567200Y-91654285D01*
X137567200Y-91654285D02*
X137614819Y-91797142D01*
X137614819Y-91797142D02*
X137614819Y-91892380D01*
X137614819Y-91892380D02*
X137567200Y-92035237D01*
X137567200Y-92035237D02*
X137471961Y-92130475D01*
X137471961Y-92130475D02*
X137376723Y-92178094D01*
X137376723Y-92178094D02*
X137186247Y-92225713D01*
X137186247Y-92225713D02*
X137043390Y-92225713D01*
X137043390Y-92225713D02*
X136852914Y-92178094D01*
X136852914Y-92178094D02*
X136757676Y-92130475D01*
X136757676Y-92130475D02*
X136662438Y-92035237D01*
X136662438Y-92035237D02*
X136614819Y-91892380D01*
X136614819Y-91892380D02*
X136614819Y-91797142D01*
X136614819Y-91797142D02*
X136662438Y-91654285D01*
X136662438Y-91654285D02*
X136710057Y-91606666D01*
X136710057Y-91225713D02*
X136662438Y-91178094D01*
X136662438Y-91178094D02*
X136614819Y-91082856D01*
X136614819Y-91082856D02*
X136614819Y-90844761D01*
X136614819Y-90844761D02*
X136662438Y-90749523D01*
X136662438Y-90749523D02*
X136710057Y-90701904D01*
X136710057Y-90701904D02*
X136805295Y-90654285D01*
X136805295Y-90654285D02*
X136900533Y-90654285D01*
X136900533Y-90654285D02*
X137043390Y-90701904D01*
X137043390Y-90701904D02*
X137614819Y-91273332D01*
X137614819Y-91273332D02*
X137614819Y-90654285D01*
X171672381Y-83274819D02*
X172291428Y-83274819D01*
X172291428Y-83274819D02*
X171958095Y-83655771D01*
X171958095Y-83655771D02*
X172100952Y-83655771D01*
X172100952Y-83655771D02*
X172196190Y-83703390D01*
X172196190Y-83703390D02*
X172243809Y-83751009D01*
X172243809Y-83751009D02*
X172291428Y-83846247D01*
X172291428Y-83846247D02*
X172291428Y-84084342D01*
X172291428Y-84084342D02*
X172243809Y-84179580D01*
X172243809Y-84179580D02*
X172196190Y-84227200D01*
X172196190Y-84227200D02*
X172100952Y-84274819D01*
X172100952Y-84274819D02*
X171815238Y-84274819D01*
X171815238Y-84274819D02*
X171720000Y-84227200D01*
X171720000Y-84227200D02*
X171672381Y-84179580D01*
X172720000Y-84179580D02*
X172767619Y-84227200D01*
X172767619Y-84227200D02*
X172720000Y-84274819D01*
X172720000Y-84274819D02*
X172672381Y-84227200D01*
X172672381Y-84227200D02*
X172720000Y-84179580D01*
X172720000Y-84179580D02*
X172720000Y-84274819D01*
X173100952Y-83274819D02*
X173719999Y-83274819D01*
X173719999Y-83274819D02*
X173386666Y-83655771D01*
X173386666Y-83655771D02*
X173529523Y-83655771D01*
X173529523Y-83655771D02*
X173624761Y-83703390D01*
X173624761Y-83703390D02*
X173672380Y-83751009D01*
X173672380Y-83751009D02*
X173719999Y-83846247D01*
X173719999Y-83846247D02*
X173719999Y-84084342D01*
X173719999Y-84084342D02*
X173672380Y-84179580D01*
X173672380Y-84179580D02*
X173624761Y-84227200D01*
X173624761Y-84227200D02*
X173529523Y-84274819D01*
X173529523Y-84274819D02*
X173243809Y-84274819D01*
X173243809Y-84274819D02*
X173148571Y-84227200D01*
X173148571Y-84227200D02*
X173100952Y-84179580D01*
X156275833Y-85039580D02*
X156228214Y-85087200D01*
X156228214Y-85087200D02*
X156085357Y-85134819D01*
X156085357Y-85134819D02*
X155990119Y-85134819D01*
X155990119Y-85134819D02*
X155847262Y-85087200D01*
X155847262Y-85087200D02*
X155752024Y-84991961D01*
X155752024Y-84991961D02*
X155704405Y-84896723D01*
X155704405Y-84896723D02*
X155656786Y-84706247D01*
X155656786Y-84706247D02*
X155656786Y-84563390D01*
X155656786Y-84563390D02*
X155704405Y-84372914D01*
X155704405Y-84372914D02*
X155752024Y-84277676D01*
X155752024Y-84277676D02*
X155847262Y-84182438D01*
X155847262Y-84182438D02*
X155990119Y-84134819D01*
X155990119Y-84134819D02*
X156085357Y-84134819D01*
X156085357Y-84134819D02*
X156228214Y-84182438D01*
X156228214Y-84182438D02*
X156275833Y-84230057D01*
X157132976Y-84134819D02*
X156942500Y-84134819D01*
X156942500Y-84134819D02*
X156847262Y-84182438D01*
X156847262Y-84182438D02*
X156799643Y-84230057D01*
X156799643Y-84230057D02*
X156704405Y-84372914D01*
X156704405Y-84372914D02*
X156656786Y-84563390D01*
X156656786Y-84563390D02*
X156656786Y-84944342D01*
X156656786Y-84944342D02*
X156704405Y-85039580D01*
X156704405Y-85039580D02*
X156752024Y-85087200D01*
X156752024Y-85087200D02*
X156847262Y-85134819D01*
X156847262Y-85134819D02*
X157037738Y-85134819D01*
X157037738Y-85134819D02*
X157132976Y-85087200D01*
X157132976Y-85087200D02*
X157180595Y-85039580D01*
X157180595Y-85039580D02*
X157228214Y-84944342D01*
X157228214Y-84944342D02*
X157228214Y-84706247D01*
X157228214Y-84706247D02*
X157180595Y-84611009D01*
X157180595Y-84611009D02*
X157132976Y-84563390D01*
X157132976Y-84563390D02*
X157037738Y-84515771D01*
X157037738Y-84515771D02*
X156847262Y-84515771D01*
X156847262Y-84515771D02*
X156752024Y-84563390D01*
X156752024Y-84563390D02*
X156704405Y-84611009D01*
X156704405Y-84611009D02*
X156656786Y-84706247D01*
X177466666Y-93204819D02*
X177466666Y-93919104D01*
X177466666Y-93919104D02*
X177419047Y-94061961D01*
X177419047Y-94061961D02*
X177323809Y-94157200D01*
X177323809Y-94157200D02*
X177180952Y-94204819D01*
X177180952Y-94204819D02*
X177085714Y-94204819D01*
X178466666Y-94204819D02*
X177895238Y-94204819D01*
X178180952Y-94204819D02*
X178180952Y-93204819D01*
X178180952Y-93204819D02*
X178085714Y-93347676D01*
X178085714Y-93347676D02*
X177990476Y-93442914D01*
X177990476Y-93442914D02*
X177895238Y-93490533D01*
X147376095Y-75654819D02*
X147376095Y-76464342D01*
X147376095Y-76464342D02*
X147423714Y-76559580D01*
X147423714Y-76559580D02*
X147471333Y-76607200D01*
X147471333Y-76607200D02*
X147566571Y-76654819D01*
X147566571Y-76654819D02*
X147757047Y-76654819D01*
X147757047Y-76654819D02*
X147852285Y-76607200D01*
X147852285Y-76607200D02*
X147899904Y-76559580D01*
X147899904Y-76559580D02*
X147947523Y-76464342D01*
X147947523Y-76464342D02*
X147947523Y-75654819D01*
X148328476Y-75654819D02*
X148947523Y-75654819D01*
X148947523Y-75654819D02*
X148614190Y-76035771D01*
X148614190Y-76035771D02*
X148757047Y-76035771D01*
X148757047Y-76035771D02*
X148852285Y-76083390D01*
X148852285Y-76083390D02*
X148899904Y-76131009D01*
X148899904Y-76131009D02*
X148947523Y-76226247D01*
X148947523Y-76226247D02*
X148947523Y-76464342D01*
X148947523Y-76464342D02*
X148899904Y-76559580D01*
X148899904Y-76559580D02*
X148852285Y-76607200D01*
X148852285Y-76607200D02*
X148757047Y-76654819D01*
X148757047Y-76654819D02*
X148471333Y-76654819D01*
X148471333Y-76654819D02*
X148376095Y-76607200D01*
X148376095Y-76607200D02*
X148328476Y-76559580D01*
X168251428Y-62954819D02*
X168441904Y-62954819D01*
X168441904Y-62954819D02*
X168537142Y-63002438D01*
X168537142Y-63002438D02*
X168632380Y-63097676D01*
X168632380Y-63097676D02*
X168679999Y-63288152D01*
X168679999Y-63288152D02*
X168679999Y-63621485D01*
X168679999Y-63621485D02*
X168632380Y-63811961D01*
X168632380Y-63811961D02*
X168537142Y-63907200D01*
X168537142Y-63907200D02*
X168441904Y-63954819D01*
X168441904Y-63954819D02*
X168251428Y-63954819D01*
X168251428Y-63954819D02*
X168156190Y-63907200D01*
X168156190Y-63907200D02*
X168060952Y-63811961D01*
X168060952Y-63811961D02*
X168013333Y-63621485D01*
X168013333Y-63621485D02*
X168013333Y-63288152D01*
X168013333Y-63288152D02*
X168060952Y-63097676D01*
X168060952Y-63097676D02*
X168156190Y-63002438D01*
X168156190Y-63002438D02*
X168251428Y-62954819D01*
X169584761Y-63954819D02*
X169108571Y-63954819D01*
X169108571Y-63954819D02*
X169108571Y-62954819D01*
X169918095Y-63431009D02*
X170251428Y-63431009D01*
X170394285Y-63954819D02*
X169918095Y-63954819D01*
X169918095Y-63954819D02*
X169918095Y-62954819D01*
X169918095Y-62954819D02*
X170394285Y-62954819D01*
X170822857Y-63954819D02*
X170822857Y-62954819D01*
X170822857Y-62954819D02*
X171060952Y-62954819D01*
X171060952Y-62954819D02*
X171203809Y-63002438D01*
X171203809Y-63002438D02*
X171299047Y-63097676D01*
X171299047Y-63097676D02*
X171346666Y-63192914D01*
X171346666Y-63192914D02*
X171394285Y-63383390D01*
X171394285Y-63383390D02*
X171394285Y-63526247D01*
X171394285Y-63526247D02*
X171346666Y-63716723D01*
X171346666Y-63716723D02*
X171299047Y-63811961D01*
X171299047Y-63811961D02*
X171203809Y-63907200D01*
X171203809Y-63907200D02*
X171060952Y-63954819D01*
X171060952Y-63954819D02*
X170822857Y-63954819D01*
X172346666Y-63954819D02*
X171775238Y-63954819D01*
X172060952Y-63954819D02*
X172060952Y-62954819D01*
X172060952Y-62954819D02*
X171965714Y-63097676D01*
X171965714Y-63097676D02*
X171870476Y-63192914D01*
X171870476Y-63192914D02*
X171775238Y-63240533D01*
X168584761Y-95244819D02*
X168108571Y-95244819D01*
X168108571Y-95244819D02*
X168108571Y-94244819D01*
X168822857Y-94244819D02*
X169489523Y-94244819D01*
X169489523Y-94244819D02*
X169060952Y-95244819D01*
X170013333Y-94673390D02*
X169918095Y-94625771D01*
X169918095Y-94625771D02*
X169870476Y-94578152D01*
X169870476Y-94578152D02*
X169822857Y-94482914D01*
X169822857Y-94482914D02*
X169822857Y-94435295D01*
X169822857Y-94435295D02*
X169870476Y-94340057D01*
X169870476Y-94340057D02*
X169918095Y-94292438D01*
X169918095Y-94292438D02*
X170013333Y-94244819D01*
X170013333Y-94244819D02*
X170203809Y-94244819D01*
X170203809Y-94244819D02*
X170299047Y-94292438D01*
X170299047Y-94292438D02*
X170346666Y-94340057D01*
X170346666Y-94340057D02*
X170394285Y-94435295D01*
X170394285Y-94435295D02*
X170394285Y-94482914D01*
X170394285Y-94482914D02*
X170346666Y-94578152D01*
X170346666Y-94578152D02*
X170299047Y-94625771D01*
X170299047Y-94625771D02*
X170203809Y-94673390D01*
X170203809Y-94673390D02*
X170013333Y-94673390D01*
X170013333Y-94673390D02*
X169918095Y-94721009D01*
X169918095Y-94721009D02*
X169870476Y-94768628D01*
X169870476Y-94768628D02*
X169822857Y-94863866D01*
X169822857Y-94863866D02*
X169822857Y-95054342D01*
X169822857Y-95054342D02*
X169870476Y-95149580D01*
X169870476Y-95149580D02*
X169918095Y-95197200D01*
X169918095Y-95197200D02*
X170013333Y-95244819D01*
X170013333Y-95244819D02*
X170203809Y-95244819D01*
X170203809Y-95244819D02*
X170299047Y-95197200D01*
X170299047Y-95197200D02*
X170346666Y-95149580D01*
X170346666Y-95149580D02*
X170394285Y-95054342D01*
X170394285Y-95054342D02*
X170394285Y-94863866D01*
X170394285Y-94863866D02*
X170346666Y-94768628D01*
X170346666Y-94768628D02*
X170299047Y-94721009D01*
X170299047Y-94721009D02*
X170203809Y-94673390D01*
X171013333Y-94244819D02*
X171108571Y-94244819D01*
X171108571Y-94244819D02*
X171203809Y-94292438D01*
X171203809Y-94292438D02*
X171251428Y-94340057D01*
X171251428Y-94340057D02*
X171299047Y-94435295D01*
X171299047Y-94435295D02*
X171346666Y-94625771D01*
X171346666Y-94625771D02*
X171346666Y-94863866D01*
X171346666Y-94863866D02*
X171299047Y-95054342D01*
X171299047Y-95054342D02*
X171251428Y-95149580D01*
X171251428Y-95149580D02*
X171203809Y-95197200D01*
X171203809Y-95197200D02*
X171108571Y-95244819D01*
X171108571Y-95244819D02*
X171013333Y-95244819D01*
X171013333Y-95244819D02*
X170918095Y-95197200D01*
X170918095Y-95197200D02*
X170870476Y-95149580D01*
X170870476Y-95149580D02*
X170822857Y-95054342D01*
X170822857Y-95054342D02*
X170775238Y-94863866D01*
X170775238Y-94863866D02*
X170775238Y-94625771D01*
X170775238Y-94625771D02*
X170822857Y-94435295D01*
X170822857Y-94435295D02*
X170870476Y-94340057D01*
X170870476Y-94340057D02*
X170918095Y-94292438D01*
X170918095Y-94292438D02*
X171013333Y-94244819D01*
X172251428Y-94244819D02*
X171775238Y-94244819D01*
X171775238Y-94244819D02*
X171727619Y-94721009D01*
X171727619Y-94721009D02*
X171775238Y-94673390D01*
X171775238Y-94673390D02*
X171870476Y-94625771D01*
X171870476Y-94625771D02*
X172108571Y-94625771D01*
X172108571Y-94625771D02*
X172203809Y-94673390D01*
X172203809Y-94673390D02*
X172251428Y-94721009D01*
X172251428Y-94721009D02*
X172299047Y-94816247D01*
X172299047Y-94816247D02*
X172299047Y-95054342D01*
X172299047Y-95054342D02*
X172251428Y-95149580D01*
X172251428Y-95149580D02*
X172203809Y-95197200D01*
X172203809Y-95197200D02*
X172108571Y-95244819D01*
X172108571Y-95244819D02*
X171870476Y-95244819D01*
X171870476Y-95244819D02*
X171775238Y-95197200D01*
X171775238Y-95197200D02*
X171727619Y-95149580D01*
X164933333Y-79194819D02*
X164600000Y-78718628D01*
X164361905Y-79194819D02*
X164361905Y-78194819D01*
X164361905Y-78194819D02*
X164742857Y-78194819D01*
X164742857Y-78194819D02*
X164838095Y-78242438D01*
X164838095Y-78242438D02*
X164885714Y-78290057D01*
X164885714Y-78290057D02*
X164933333Y-78385295D01*
X164933333Y-78385295D02*
X164933333Y-78528152D01*
X164933333Y-78528152D02*
X164885714Y-78623390D01*
X164885714Y-78623390D02*
X164838095Y-78671009D01*
X164838095Y-78671009D02*
X164742857Y-78718628D01*
X164742857Y-78718628D02*
X164361905Y-78718628D01*
X165838095Y-78194819D02*
X165361905Y-78194819D01*
X165361905Y-78194819D02*
X165314286Y-78671009D01*
X165314286Y-78671009D02*
X165361905Y-78623390D01*
X165361905Y-78623390D02*
X165457143Y-78575771D01*
X165457143Y-78575771D02*
X165695238Y-78575771D01*
X165695238Y-78575771D02*
X165790476Y-78623390D01*
X165790476Y-78623390D02*
X165838095Y-78671009D01*
X165838095Y-78671009D02*
X165885714Y-78766247D01*
X165885714Y-78766247D02*
X165885714Y-79004342D01*
X165885714Y-79004342D02*
X165838095Y-79099580D01*
X165838095Y-79099580D02*
X165790476Y-79147200D01*
X165790476Y-79147200D02*
X165695238Y-79194819D01*
X165695238Y-79194819D02*
X165457143Y-79194819D01*
X165457143Y-79194819D02*
X165361905Y-79147200D01*
X165361905Y-79147200D02*
X165314286Y-79099580D01*
X164933333Y-94339580D02*
X164885714Y-94387200D01*
X164885714Y-94387200D02*
X164742857Y-94434819D01*
X164742857Y-94434819D02*
X164647619Y-94434819D01*
X164647619Y-94434819D02*
X164504762Y-94387200D01*
X164504762Y-94387200D02*
X164409524Y-94291961D01*
X164409524Y-94291961D02*
X164361905Y-94196723D01*
X164361905Y-94196723D02*
X164314286Y-94006247D01*
X164314286Y-94006247D02*
X164314286Y-93863390D01*
X164314286Y-93863390D02*
X164361905Y-93672914D01*
X164361905Y-93672914D02*
X164409524Y-93577676D01*
X164409524Y-93577676D02*
X164504762Y-93482438D01*
X164504762Y-93482438D02*
X164647619Y-93434819D01*
X164647619Y-93434819D02*
X164742857Y-93434819D01*
X164742857Y-93434819D02*
X164885714Y-93482438D01*
X164885714Y-93482438D02*
X164933333Y-93530057D01*
X165790476Y-93768152D02*
X165790476Y-94434819D01*
X165552381Y-93387200D02*
X165314286Y-94101485D01*
X165314286Y-94101485D02*
X165933333Y-94101485D01*
X138379580Y-86526666D02*
X138427200Y-86574285D01*
X138427200Y-86574285D02*
X138474819Y-86717142D01*
X138474819Y-86717142D02*
X138474819Y-86812380D01*
X138474819Y-86812380D02*
X138427200Y-86955237D01*
X138427200Y-86955237D02*
X138331961Y-87050475D01*
X138331961Y-87050475D02*
X138236723Y-87098094D01*
X138236723Y-87098094D02*
X138046247Y-87145713D01*
X138046247Y-87145713D02*
X137903390Y-87145713D01*
X137903390Y-87145713D02*
X137712914Y-87098094D01*
X137712914Y-87098094D02*
X137617676Y-87050475D01*
X137617676Y-87050475D02*
X137522438Y-86955237D01*
X137522438Y-86955237D02*
X137474819Y-86812380D01*
X137474819Y-86812380D02*
X137474819Y-86717142D01*
X137474819Y-86717142D02*
X137522438Y-86574285D01*
X137522438Y-86574285D02*
X137570057Y-86526666D01*
X138474819Y-85574285D02*
X138474819Y-86145713D01*
X138474819Y-85859999D02*
X137474819Y-85859999D01*
X137474819Y-85859999D02*
X137617676Y-85955237D01*
X137617676Y-85955237D02*
X137712914Y-86050475D01*
X137712914Y-86050475D02*
X137760533Y-86145713D01*
X159853333Y-89259580D02*
X159805714Y-89307200D01*
X159805714Y-89307200D02*
X159662857Y-89354819D01*
X159662857Y-89354819D02*
X159567619Y-89354819D01*
X159567619Y-89354819D02*
X159424762Y-89307200D01*
X159424762Y-89307200D02*
X159329524Y-89211961D01*
X159329524Y-89211961D02*
X159281905Y-89116723D01*
X159281905Y-89116723D02*
X159234286Y-88926247D01*
X159234286Y-88926247D02*
X159234286Y-88783390D01*
X159234286Y-88783390D02*
X159281905Y-88592914D01*
X159281905Y-88592914D02*
X159329524Y-88497676D01*
X159329524Y-88497676D02*
X159424762Y-88402438D01*
X159424762Y-88402438D02*
X159567619Y-88354819D01*
X159567619Y-88354819D02*
X159662857Y-88354819D01*
X159662857Y-88354819D02*
X159805714Y-88402438D01*
X159805714Y-88402438D02*
X159853333Y-88450057D01*
X160758095Y-88354819D02*
X160281905Y-88354819D01*
X160281905Y-88354819D02*
X160234286Y-88831009D01*
X160234286Y-88831009D02*
X160281905Y-88783390D01*
X160281905Y-88783390D02*
X160377143Y-88735771D01*
X160377143Y-88735771D02*
X160615238Y-88735771D01*
X160615238Y-88735771D02*
X160710476Y-88783390D01*
X160710476Y-88783390D02*
X160758095Y-88831009D01*
X160758095Y-88831009D02*
X160805714Y-88926247D01*
X160805714Y-88926247D02*
X160805714Y-89164342D01*
X160805714Y-89164342D02*
X160758095Y-89259580D01*
X160758095Y-89259580D02*
X160710476Y-89307200D01*
X160710476Y-89307200D02*
X160615238Y-89354819D01*
X160615238Y-89354819D02*
X160377143Y-89354819D01*
X160377143Y-89354819D02*
X160281905Y-89307200D01*
X160281905Y-89307200D02*
X160234286Y-89259580D01*
X157313333Y-102054819D02*
X156980000Y-101578628D01*
X156741905Y-102054819D02*
X156741905Y-101054819D01*
X156741905Y-101054819D02*
X157122857Y-101054819D01*
X157122857Y-101054819D02*
X157218095Y-101102438D01*
X157218095Y-101102438D02*
X157265714Y-101150057D01*
X157265714Y-101150057D02*
X157313333Y-101245295D01*
X157313333Y-101245295D02*
X157313333Y-101388152D01*
X157313333Y-101388152D02*
X157265714Y-101483390D01*
X157265714Y-101483390D02*
X157218095Y-101531009D01*
X157218095Y-101531009D02*
X157122857Y-101578628D01*
X157122857Y-101578628D02*
X156741905Y-101578628D01*
X158265714Y-102054819D02*
X157694286Y-102054819D01*
X157980000Y-102054819D02*
X157980000Y-101054819D01*
X157980000Y-101054819D02*
X157884762Y-101197676D01*
X157884762Y-101197676D02*
X157789524Y-101292914D01*
X157789524Y-101292914D02*
X157694286Y-101340533D01*
X140540833Y-64844819D02*
X140207500Y-64368628D01*
X139969405Y-64844819D02*
X139969405Y-63844819D01*
X139969405Y-63844819D02*
X140350357Y-63844819D01*
X140350357Y-63844819D02*
X140445595Y-63892438D01*
X140445595Y-63892438D02*
X140493214Y-63940057D01*
X140493214Y-63940057D02*
X140540833Y-64035295D01*
X140540833Y-64035295D02*
X140540833Y-64178152D01*
X140540833Y-64178152D02*
X140493214Y-64273390D01*
X140493214Y-64273390D02*
X140445595Y-64321009D01*
X140445595Y-64321009D02*
X140350357Y-64368628D01*
X140350357Y-64368628D02*
X139969405Y-64368628D01*
X140921786Y-63940057D02*
X140969405Y-63892438D01*
X140969405Y-63892438D02*
X141064643Y-63844819D01*
X141064643Y-63844819D02*
X141302738Y-63844819D01*
X141302738Y-63844819D02*
X141397976Y-63892438D01*
X141397976Y-63892438D02*
X141445595Y-63940057D01*
X141445595Y-63940057D02*
X141493214Y-64035295D01*
X141493214Y-64035295D02*
X141493214Y-64130533D01*
X141493214Y-64130533D02*
X141445595Y-64273390D01*
X141445595Y-64273390D02*
X140874167Y-64844819D01*
X140874167Y-64844819D02*
X141493214Y-64844819D01*
X138379580Y-98189166D02*
X138427200Y-98236785D01*
X138427200Y-98236785D02*
X138474819Y-98379642D01*
X138474819Y-98379642D02*
X138474819Y-98474880D01*
X138474819Y-98474880D02*
X138427200Y-98617737D01*
X138427200Y-98617737D02*
X138331961Y-98712975D01*
X138331961Y-98712975D02*
X138236723Y-98760594D01*
X138236723Y-98760594D02*
X138046247Y-98808213D01*
X138046247Y-98808213D02*
X137903390Y-98808213D01*
X137903390Y-98808213D02*
X137712914Y-98760594D01*
X137712914Y-98760594D02*
X137617676Y-98712975D01*
X137617676Y-98712975D02*
X137522438Y-98617737D01*
X137522438Y-98617737D02*
X137474819Y-98474880D01*
X137474819Y-98474880D02*
X137474819Y-98379642D01*
X137474819Y-98379642D02*
X137522438Y-98236785D01*
X137522438Y-98236785D02*
X137570057Y-98189166D01*
X137474819Y-97855832D02*
X137474819Y-97236785D01*
X137474819Y-97236785D02*
X137855771Y-97570118D01*
X137855771Y-97570118D02*
X137855771Y-97427261D01*
X137855771Y-97427261D02*
X137903390Y-97332023D01*
X137903390Y-97332023D02*
X137951009Y-97284404D01*
X137951009Y-97284404D02*
X138046247Y-97236785D01*
X138046247Y-97236785D02*
X138284342Y-97236785D01*
X138284342Y-97236785D02*
X138379580Y-97284404D01*
X138379580Y-97284404D02*
X138427200Y-97332023D01*
X138427200Y-97332023D02*
X138474819Y-97427261D01*
X138474819Y-97427261D02*
X138474819Y-97712975D01*
X138474819Y-97712975D02*
X138427200Y-97808213D01*
X138427200Y-97808213D02*
X138379580Y-97855832D01*
X179794819Y-87081904D02*
X179794819Y-86510476D01*
X180794819Y-86796190D02*
X179794819Y-86796190D01*
X180699580Y-85605714D02*
X180747200Y-85653333D01*
X180747200Y-85653333D02*
X180794819Y-85796190D01*
X180794819Y-85796190D02*
X180794819Y-85891428D01*
X180794819Y-85891428D02*
X180747200Y-86034285D01*
X180747200Y-86034285D02*
X180651961Y-86129523D01*
X180651961Y-86129523D02*
X180556723Y-86177142D01*
X180556723Y-86177142D02*
X180366247Y-86224761D01*
X180366247Y-86224761D02*
X180223390Y-86224761D01*
X180223390Y-86224761D02*
X180032914Y-86177142D01*
X180032914Y-86177142D02*
X179937676Y-86129523D01*
X179937676Y-86129523D02*
X179842438Y-86034285D01*
X179842438Y-86034285D02*
X179794819Y-85891428D01*
X179794819Y-85891428D02*
X179794819Y-85796190D01*
X179794819Y-85796190D02*
X179842438Y-85653333D01*
X179842438Y-85653333D02*
X179890057Y-85605714D01*
X179794819Y-84986666D02*
X179794819Y-84796190D01*
X179794819Y-84796190D02*
X179842438Y-84700952D01*
X179842438Y-84700952D02*
X179937676Y-84605714D01*
X179937676Y-84605714D02*
X180128152Y-84558095D01*
X180128152Y-84558095D02*
X180461485Y-84558095D01*
X180461485Y-84558095D02*
X180651961Y-84605714D01*
X180651961Y-84605714D02*
X180747200Y-84700952D01*
X180747200Y-84700952D02*
X180794819Y-84796190D01*
X180794819Y-84796190D02*
X180794819Y-84986666D01*
X180794819Y-84986666D02*
X180747200Y-85081904D01*
X180747200Y-85081904D02*
X180651961Y-85177142D01*
X180651961Y-85177142D02*
X180461485Y-85224761D01*
X180461485Y-85224761D02*
X180128152Y-85224761D01*
X180128152Y-85224761D02*
X179937676Y-85177142D01*
X179937676Y-85177142D02*
X179842438Y-85081904D01*
X179842438Y-85081904D02*
X179794819Y-84986666D01*
X179794819Y-83939047D02*
X179794819Y-83748571D01*
X179794819Y-83748571D02*
X179842438Y-83653333D01*
X179842438Y-83653333D02*
X179937676Y-83558095D01*
X179937676Y-83558095D02*
X180128152Y-83510476D01*
X180128152Y-83510476D02*
X180461485Y-83510476D01*
X180461485Y-83510476D02*
X180651961Y-83558095D01*
X180651961Y-83558095D02*
X180747200Y-83653333D01*
X180747200Y-83653333D02*
X180794819Y-83748571D01*
X180794819Y-83748571D02*
X180794819Y-83939047D01*
X180794819Y-83939047D02*
X180747200Y-84034285D01*
X180747200Y-84034285D02*
X180651961Y-84129523D01*
X180651961Y-84129523D02*
X180461485Y-84177142D01*
X180461485Y-84177142D02*
X180128152Y-84177142D01*
X180128152Y-84177142D02*
X179937676Y-84129523D01*
X179937676Y-84129523D02*
X179842438Y-84034285D01*
X179842438Y-84034285D02*
X179794819Y-83939047D01*
X179794819Y-82605714D02*
X179794819Y-83081904D01*
X179794819Y-83081904D02*
X180271009Y-83129523D01*
X180271009Y-83129523D02*
X180223390Y-83081904D01*
X180223390Y-83081904D02*
X180175771Y-82986666D01*
X180175771Y-82986666D02*
X180175771Y-82748571D01*
X180175771Y-82748571D02*
X180223390Y-82653333D01*
X180223390Y-82653333D02*
X180271009Y-82605714D01*
X180271009Y-82605714D02*
X180366247Y-82558095D01*
X180366247Y-82558095D02*
X180604342Y-82558095D01*
X180604342Y-82558095D02*
X180699580Y-82605714D01*
X180699580Y-82605714D02*
X180747200Y-82653333D01*
X180747200Y-82653333D02*
X180794819Y-82748571D01*
X180794819Y-82748571D02*
X180794819Y-82986666D01*
X180794819Y-82986666D02*
X180747200Y-83081904D01*
X180747200Y-83081904D02*
X180699580Y-83129523D01*
X179794819Y-81939047D02*
X179794819Y-81843809D01*
X179794819Y-81843809D02*
X179842438Y-81748571D01*
X179842438Y-81748571D02*
X179890057Y-81700952D01*
X179890057Y-81700952D02*
X179985295Y-81653333D01*
X179985295Y-81653333D02*
X180175771Y-81605714D01*
X180175771Y-81605714D02*
X180413866Y-81605714D01*
X180413866Y-81605714D02*
X180604342Y-81653333D01*
X180604342Y-81653333D02*
X180699580Y-81700952D01*
X180699580Y-81700952D02*
X180747200Y-81748571D01*
X180747200Y-81748571D02*
X180794819Y-81843809D01*
X180794819Y-81843809D02*
X180794819Y-81939047D01*
X180794819Y-81939047D02*
X180747200Y-82034285D01*
X180747200Y-82034285D02*
X180699580Y-82081904D01*
X180699580Y-82081904D02*
X180604342Y-82129523D01*
X180604342Y-82129523D02*
X180413866Y-82177142D01*
X180413866Y-82177142D02*
X180175771Y-82177142D01*
X180175771Y-82177142D02*
X179985295Y-82129523D01*
X179985295Y-82129523D02*
X179890057Y-82081904D01*
X179890057Y-82081904D02*
X179842438Y-82034285D01*
X179842438Y-82034285D02*
X179794819Y-81939047D01*
X179794819Y-80986666D02*
X179794819Y-80891428D01*
X179794819Y-80891428D02*
X179842438Y-80796190D01*
X179842438Y-80796190D02*
X179890057Y-80748571D01*
X179890057Y-80748571D02*
X179985295Y-80700952D01*
X179985295Y-80700952D02*
X180175771Y-80653333D01*
X180175771Y-80653333D02*
X180413866Y-80653333D01*
X180413866Y-80653333D02*
X180604342Y-80700952D01*
X180604342Y-80700952D02*
X180699580Y-80748571D01*
X180699580Y-80748571D02*
X180747200Y-80796190D01*
X180747200Y-80796190D02*
X180794819Y-80891428D01*
X180794819Y-80891428D02*
X180794819Y-80986666D01*
X180794819Y-80986666D02*
X180747200Y-81081904D01*
X180747200Y-81081904D02*
X180699580Y-81129523D01*
X180699580Y-81129523D02*
X180604342Y-81177142D01*
X180604342Y-81177142D02*
X180413866Y-81224761D01*
X180413866Y-81224761D02*
X180175771Y-81224761D01*
X180175771Y-81224761D02*
X179985295Y-81177142D01*
X179985295Y-81177142D02*
X179890057Y-81129523D01*
X179890057Y-81129523D02*
X179842438Y-81081904D01*
X179842438Y-81081904D02*
X179794819Y-80986666D01*
X180794819Y-73405713D02*
X179794819Y-73405713D01*
X179794819Y-73405713D02*
X180509104Y-73072380D01*
X180509104Y-73072380D02*
X179794819Y-72739047D01*
X179794819Y-72739047D02*
X180794819Y-72739047D01*
X180890057Y-71596190D02*
X180842438Y-71691428D01*
X180842438Y-71691428D02*
X180747200Y-71786666D01*
X180747200Y-71786666D02*
X180604342Y-71929523D01*
X180604342Y-71929523D02*
X180556723Y-72024761D01*
X180556723Y-72024761D02*
X180556723Y-72119999D01*
X180794819Y-72072380D02*
X180747200Y-72167618D01*
X180747200Y-72167618D02*
X180651961Y-72262856D01*
X180651961Y-72262856D02*
X180461485Y-72310475D01*
X180461485Y-72310475D02*
X180128152Y-72310475D01*
X180128152Y-72310475D02*
X179937676Y-72262856D01*
X179937676Y-72262856D02*
X179842438Y-72167618D01*
X179842438Y-72167618D02*
X179794819Y-72072380D01*
X179794819Y-72072380D02*
X179794819Y-71881904D01*
X179794819Y-71881904D02*
X179842438Y-71786666D01*
X179842438Y-71786666D02*
X179937676Y-71691428D01*
X179937676Y-71691428D02*
X180128152Y-71643809D01*
X180128152Y-71643809D02*
X180461485Y-71643809D01*
X180461485Y-71643809D02*
X180651961Y-71691428D01*
X180651961Y-71691428D02*
X180747200Y-71786666D01*
X180747200Y-71786666D02*
X180794819Y-71881904D01*
X180794819Y-71881904D02*
X180794819Y-72072380D01*
X180794819Y-70691428D02*
X180794819Y-71262856D01*
X180794819Y-70977142D02*
X179794819Y-70977142D01*
X179794819Y-70977142D02*
X179937676Y-71072380D01*
X179937676Y-71072380D02*
X180032914Y-71167618D01*
X180032914Y-71167618D02*
X180080533Y-71262856D01*
X179794819Y-70358094D02*
X179794819Y-69739047D01*
X179794819Y-69739047D02*
X180175771Y-70072380D01*
X180175771Y-70072380D02*
X180175771Y-69929523D01*
X180175771Y-69929523D02*
X180223390Y-69834285D01*
X180223390Y-69834285D02*
X180271009Y-69786666D01*
X180271009Y-69786666D02*
X180366247Y-69739047D01*
X180366247Y-69739047D02*
X180604342Y-69739047D01*
X180604342Y-69739047D02*
X180699580Y-69786666D01*
X180699580Y-69786666D02*
X180747200Y-69834285D01*
X180747200Y-69834285D02*
X180794819Y-69929523D01*
X180794819Y-69929523D02*
X180794819Y-70215237D01*
X180794819Y-70215237D02*
X180747200Y-70310475D01*
X180747200Y-70310475D02*
X180699580Y-70358094D01*
X179794819Y-68834285D02*
X179794819Y-69310475D01*
X179794819Y-69310475D02*
X180271009Y-69358094D01*
X180271009Y-69358094D02*
X180223390Y-69310475D01*
X180223390Y-69310475D02*
X180175771Y-69215237D01*
X180175771Y-69215237D02*
X180175771Y-68977142D01*
X180175771Y-68977142D02*
X180223390Y-68881904D01*
X180223390Y-68881904D02*
X180271009Y-68834285D01*
X180271009Y-68834285D02*
X180366247Y-68786666D01*
X180366247Y-68786666D02*
X180604342Y-68786666D01*
X180604342Y-68786666D02*
X180699580Y-68834285D01*
X180699580Y-68834285D02*
X180747200Y-68881904D01*
X180747200Y-68881904D02*
X180794819Y-68977142D01*
X180794819Y-68977142D02*
X180794819Y-69215237D01*
X180794819Y-69215237D02*
X180747200Y-69310475D01*
X180747200Y-69310475D02*
X180699580Y-69358094D01*
X168651847Y-74116137D02*
X168651847Y-73113287D01*
X168651847Y-73590835D02*
X169224904Y-73590835D01*
X169224904Y-74116137D02*
X169224904Y-73113287D01*
X169702452Y-74116137D02*
X169702452Y-73113287D01*
X170180000Y-74116137D02*
X170180000Y-73113287D01*
X170180000Y-73590835D02*
X170753057Y-73590835D01*
X170753057Y-74116137D02*
X170753057Y-73113287D01*
X171755908Y-74116137D02*
X171182851Y-74116137D01*
X171469379Y-74116137D02*
X171469379Y-73113287D01*
X171469379Y-73113287D02*
X171373870Y-73256552D01*
X171373870Y-73256552D02*
X171278360Y-73352061D01*
X171278360Y-73352061D02*
X171182851Y-73399816D01*
D10*
X160298095Y-69037419D02*
X160298095Y-68037419D01*
X160298095Y-68037419D02*
X160631428Y-68751704D01*
X160631428Y-68751704D02*
X160964761Y-68037419D01*
X160964761Y-68037419D02*
X160964761Y-69037419D01*
X161964761Y-68085038D02*
X161869523Y-68037419D01*
X161869523Y-68037419D02*
X161726666Y-68037419D01*
X161726666Y-68037419D02*
X161583809Y-68085038D01*
X161583809Y-68085038D02*
X161488571Y-68180276D01*
X161488571Y-68180276D02*
X161440952Y-68275514D01*
X161440952Y-68275514D02*
X161393333Y-68465990D01*
X161393333Y-68465990D02*
X161393333Y-68608847D01*
X161393333Y-68608847D02*
X161440952Y-68799323D01*
X161440952Y-68799323D02*
X161488571Y-68894561D01*
X161488571Y-68894561D02*
X161583809Y-68989800D01*
X161583809Y-68989800D02*
X161726666Y-69037419D01*
X161726666Y-69037419D02*
X161821904Y-69037419D01*
X161821904Y-69037419D02*
X161964761Y-68989800D01*
X161964761Y-68989800D02*
X162012380Y-68942180D01*
X162012380Y-68942180D02*
X162012380Y-68608847D01*
X162012380Y-68608847D02*
X161821904Y-68608847D01*
X162583809Y-68465990D02*
X162488571Y-68418371D01*
X162488571Y-68418371D02*
X162440952Y-68370752D01*
X162440952Y-68370752D02*
X162393333Y-68275514D01*
X162393333Y-68275514D02*
X162393333Y-68227895D01*
X162393333Y-68227895D02*
X162440952Y-68132657D01*
X162440952Y-68132657D02*
X162488571Y-68085038D01*
X162488571Y-68085038D02*
X162583809Y-68037419D01*
X162583809Y-68037419D02*
X162774285Y-68037419D01*
X162774285Y-68037419D02*
X162869523Y-68085038D01*
X162869523Y-68085038D02*
X162917142Y-68132657D01*
X162917142Y-68132657D02*
X162964761Y-68227895D01*
X162964761Y-68227895D02*
X162964761Y-68275514D01*
X162964761Y-68275514D02*
X162917142Y-68370752D01*
X162917142Y-68370752D02*
X162869523Y-68418371D01*
X162869523Y-68418371D02*
X162774285Y-68465990D01*
X162774285Y-68465990D02*
X162583809Y-68465990D01*
X162583809Y-68465990D02*
X162488571Y-68513609D01*
X162488571Y-68513609D02*
X162440952Y-68561228D01*
X162440952Y-68561228D02*
X162393333Y-68656466D01*
X162393333Y-68656466D02*
X162393333Y-68846942D01*
X162393333Y-68846942D02*
X162440952Y-68942180D01*
X162440952Y-68942180D02*
X162488571Y-68989800D01*
X162488571Y-68989800D02*
X162583809Y-69037419D01*
X162583809Y-69037419D02*
X162774285Y-69037419D01*
X162774285Y-69037419D02*
X162869523Y-68989800D01*
X162869523Y-68989800D02*
X162917142Y-68942180D01*
X162917142Y-68942180D02*
X162964761Y-68846942D01*
X162964761Y-68846942D02*
X162964761Y-68656466D01*
X162964761Y-68656466D02*
X162917142Y-68561228D01*
X162917142Y-68561228D02*
X162869523Y-68513609D01*
X162869523Y-68513609D02*
X162774285Y-68465990D01*
X163917142Y-69037419D02*
X163345714Y-69037419D01*
X163631428Y-69037419D02*
X163631428Y-68037419D01*
X163631428Y-68037419D02*
X163536190Y-68180276D01*
X163536190Y-68180276D02*
X163440952Y-68275514D01*
X163440952Y-68275514D02*
X163345714Y-68323133D01*
X164298095Y-68132657D02*
X164345714Y-68085038D01*
X164345714Y-68085038D02*
X164440952Y-68037419D01*
X164440952Y-68037419D02*
X164679047Y-68037419D01*
X164679047Y-68037419D02*
X164774285Y-68085038D01*
X164774285Y-68085038D02*
X164821904Y-68132657D01*
X164821904Y-68132657D02*
X164869523Y-68227895D01*
X164869523Y-68227895D02*
X164869523Y-68323133D01*
X164869523Y-68323133D02*
X164821904Y-68465990D01*
X164821904Y-68465990D02*
X164250476Y-69037419D01*
X164250476Y-69037419D02*
X164869523Y-69037419D01*
D12*
%TO.C,LM35*%
X160020000Y-78720000D02*
X156570000Y-78720000D01*
X160020000Y-78720000D02*
X161970000Y-78720000D01*
X160020000Y-83840000D02*
X158070000Y-83840000D01*
X160020000Y-83840000D02*
X161970000Y-83840000D01*
%TO.C,LED1*%
X160875000Y-98100000D02*
X160875000Y-100020000D01*
X160875000Y-100020000D02*
X163560000Y-100020000D01*
X163560000Y-98100000D02*
X160875000Y-98100000D01*
%TO.C,C2*%
X140435000Y-91178748D02*
X140435000Y-91701252D01*
X138965000Y-91178748D02*
X138965000Y-91701252D01*
%TO.C,3.3*%
X167285000Y-85195000D02*
X167285000Y-85465000D01*
X167285000Y-85465000D02*
X164455000Y-85465000D01*
X167285000Y-91825000D02*
X166185000Y-91825000D01*
X167285000Y-92095000D02*
X167285000Y-91825000D01*
X173705000Y-85195000D02*
X167285000Y-85195000D01*
X173705000Y-92095000D02*
X167285000Y-92095000D01*
%TO.C,C6*%
X156181248Y-85625000D02*
X156703752Y-85625000D01*
X156181248Y-87095000D02*
X156703752Y-87095000D01*
%TO.C,J1*%
X176470000Y-97790000D02*
X176470000Y-100390000D01*
X176470000Y-97790000D02*
X179130000Y-97790000D01*
X176470000Y-100390000D02*
X179130000Y-100390000D01*
X177800000Y-95190000D02*
X179130000Y-95190000D01*
X179130000Y-95190000D02*
X179130000Y-96520000D01*
X179130000Y-97790000D02*
X179130000Y-100390000D01*
D13*
%TO.C,U3*%
X144843500Y-64630000D02*
X152082500Y-64630000D01*
X144843500Y-99540000D02*
X152082500Y-99540000D01*
D14*
X143463000Y-65575000D02*
G75*
G03*
X143263000Y-65575000I-100000J0D01*
G01*
X143263000Y-65575000D02*
G75*
G03*
X143463000Y-65575000I100000J0D01*
G01*
D12*
%TO.C,OLED1*%
X161290000Y-67370000D02*
X168970000Y-67370000D01*
X161290000Y-67370000D02*
X161290000Y-64710000D01*
X168970000Y-67370000D02*
X168970000Y-64710000D01*
X158690000Y-66040000D02*
X158690000Y-64710000D01*
X158690000Y-64710000D02*
X160020000Y-64710000D01*
X161290000Y-64710000D02*
X168970000Y-64710000D01*
%TO.C,L7805*%
X165060000Y-95790000D02*
X165060000Y-100431000D01*
X165060000Y-95790000D02*
X175300000Y-95790000D01*
X165060000Y-97300000D02*
X175300000Y-97300000D01*
X165060000Y-100431000D02*
X175300000Y-100431000D01*
X168330000Y-95790000D02*
X168330000Y-97300000D01*
X172031000Y-95790000D02*
X172031000Y-97300000D01*
X175300000Y-95790000D02*
X175300000Y-100431000D01*
%TO.C,R5*%
X158252936Y-75465000D02*
X158707064Y-75465000D01*
X158252936Y-76935000D02*
X158707064Y-76935000D01*
%TO.C,C4*%
X161783752Y-94715000D02*
X161261248Y-94715000D01*
X161783752Y-93245000D02*
X161261248Y-93245000D01*
%TO.C,C1*%
X138965000Y-86621252D02*
X138965000Y-86098748D01*
X140435000Y-86621252D02*
X140435000Y-86098748D01*
%TO.C,C5*%
X161783752Y-92175000D02*
X161261248Y-92175000D01*
X161783752Y-90705000D02*
X161261248Y-90705000D01*
%TO.C,R1*%
X157252936Y-98325000D02*
X157707064Y-98325000D01*
X157252936Y-99795000D02*
X157707064Y-99795000D01*
%TO.C,R2*%
X140480436Y-65305000D02*
X140934564Y-65305000D01*
X140480436Y-66775000D02*
X140934564Y-66775000D01*
%TO.C,C3*%
X138965000Y-98283752D02*
X138965000Y-97761248D01*
X140435000Y-98283752D02*
X140435000Y-97761248D01*
%TO.C,TCOO500*%
X176470000Y-80010000D02*
X176470000Y-92770000D01*
X176470000Y-80010000D02*
X179130000Y-80010000D01*
X176470000Y-92770000D02*
X179130000Y-92770000D01*
X177800000Y-77410000D02*
X179130000Y-77410000D01*
X179130000Y-77410000D02*
X179130000Y-78740000D01*
X179130000Y-80010000D02*
X179130000Y-92770000D01*
%TO.C,MQ135*%
X176470000Y-67310000D02*
X176470000Y-74990000D01*
X176470000Y-67310000D02*
X179130000Y-67310000D01*
X176470000Y-74990000D02*
X179130000Y-74990000D01*
X177800000Y-64710000D02*
X179130000Y-64710000D01*
X179130000Y-64710000D02*
X179130000Y-66040000D01*
X179130000Y-67310000D02*
X179130000Y-74990000D01*
D15*
%TO.C,HIH1*%
X168320000Y-81600000D02*
G75*
G03*
X168040000Y-81600000I-140000J0D01*
G01*
X168040000Y-81600000D02*
G75*
G03*
X168320000Y-81600000I140000J0D01*
G01*
%TD*%
M02*
