%TF.GenerationSoftware,KiCad,Pcbnew,7.0.10*%
%TF.CreationDate,2024-04-21T18:35:41+05:30*%
%TF.ProjectId,ESDP_Final,45534450-5f46-4696-9e61-6c2e6b696361,rev?*%
%TF.SameCoordinates,Original*%
%TF.FileFunction,Soldermask,Top*%
%TF.FilePolarity,Negative*%
%FSLAX46Y46*%
G04 Gerber Fmt 4.6, Leading zero omitted, Abs format (unit mm)*
G04 Created by KiCad (PCBNEW 7.0.10) date 2024-04-21 18:35:41*
%MOMM*%
%LPD*%
G01*
G04 APERTURE LIST*
G04 Aperture macros list*
%AMRoundRect*
0 Rectangle with rounded corners*
0 $1 Rounding radius*
0 $2 $3 $4 $5 $6 $7 $8 $9 X,Y pos of 4 corners*
0 Add a 4 corners polygon primitive as box body*
4,1,4,$2,$3,$4,$5,$6,$7,$8,$9,$2,$3,0*
0 Add four circle primitives for the rounded corners*
1,1,$1+$1,$2,$3*
1,1,$1+$1,$4,$5*
1,1,$1+$1,$6,$7*
1,1,$1+$1,$8,$9*
0 Add four rect primitives between the rounded corners*
20,1,$1+$1,$2,$3,$4,$5,0*
20,1,$1+$1,$4,$5,$6,$7,0*
20,1,$1+$1,$6,$7,$8,$9,0*
20,1,$1+$1,$8,$9,$2,$3,0*%
G04 Aperture macros list end*
%ADD10O,1.524000X1.524000*%
%ADD11RoundRect,0.150000X-0.825000X-0.150000X0.825000X-0.150000X0.825000X0.150000X-0.825000X0.150000X0*%
%ADD12RoundRect,0.243750X-0.243750X-0.456250X0.243750X-0.456250X0.243750X0.456250X-0.243750X0.456250X0*%
%ADD13RoundRect,0.250000X-0.475000X0.337500X-0.475000X-0.337500X0.475000X-0.337500X0.475000X0.337500X0*%
%ADD14RoundRect,0.250000X-0.850000X-0.350000X0.850000X-0.350000X0.850000X0.350000X-0.850000X0.350000X0*%
%ADD15RoundRect,0.249997X-2.950003X-2.650003X2.950003X-2.650003X2.950003X2.650003X-2.950003X2.650003X0*%
%ADD16RoundRect,0.250000X-0.337500X-0.475000X0.337500X-0.475000X0.337500X0.475000X-0.337500X0.475000X0*%
%ADD17R,1.700000X1.700000*%
%ADD18O,1.700000X1.700000*%
%ADD19RoundRect,0.102000X-0.625000X-0.625000X0.625000X-0.625000X0.625000X0.625000X-0.625000X0.625000X0*%
%ADD20C,1.454000*%
%ADD21R,1.905000X2.000000*%
%ADD22O,1.905000X2.000000*%
%ADD23RoundRect,0.250000X-0.350000X-0.450000X0.350000X-0.450000X0.350000X0.450000X-0.350000X0.450000X0*%
%ADD24RoundRect,0.250000X0.337500X0.475000X-0.337500X0.475000X-0.337500X-0.475000X0.337500X-0.475000X0*%
%ADD25RoundRect,0.250000X0.475000X-0.337500X0.475000X0.337500X-0.475000X0.337500X-0.475000X-0.337500X0*%
%ADD26RoundRect,0.102000X0.255000X-0.890000X0.255000X0.890000X-0.255000X0.890000X-0.255000X-0.890000X0*%
%ADD27RoundRect,0.102000X-1.270000X-1.145000X1.270000X-1.145000X1.270000X1.145000X-1.270000X1.145000X0*%
%ADD28C,2.286000*%
G04 APERTURE END LIST*
D10*
%TO.C,16MHZ_C1*%
X139700000Y-73760000D03*
X139700000Y-78640000D03*
%TD*%
D11*
%TO.C,LM35*%
X157545000Y-79375000D03*
X157545000Y-80645000D03*
X157545000Y-81915000D03*
X157545000Y-83185000D03*
X162495000Y-83185000D03*
X162495000Y-81915000D03*
X162495000Y-80645000D03*
X162495000Y-79375000D03*
%TD*%
D12*
%TO.C,LED1*%
X161622500Y-99060000D03*
X163497500Y-99060000D03*
%TD*%
D13*
%TO.C,C2*%
X139700000Y-90402500D03*
X139700000Y-92477500D03*
%TD*%
D14*
%TO.C,3.3*%
X165555000Y-86365000D03*
X165555000Y-88645000D03*
D15*
X171855000Y-88645000D03*
D14*
X165555000Y-90925000D03*
%TD*%
D16*
%TO.C,C6*%
X155405000Y-86360000D03*
X157480000Y-86360000D03*
%TD*%
D17*
%TO.C,J1*%
X177800000Y-96520000D03*
D18*
X177800000Y-99060000D03*
%TD*%
D19*
%TO.C,U3*%
X144526000Y-65575000D03*
D20*
X144526000Y-68115000D03*
X144526000Y-70655000D03*
X144526000Y-73195000D03*
X144526000Y-75735000D03*
X144526000Y-78275000D03*
X144526000Y-80815000D03*
X144526000Y-83355000D03*
X144526000Y-85895000D03*
X144526000Y-88435000D03*
X144526000Y-90975000D03*
X144526000Y-93515000D03*
X144526000Y-96055000D03*
X144526000Y-98595000D03*
X152400000Y-98595000D03*
X152400000Y-96055000D03*
X152400000Y-93515000D03*
X152400000Y-90975000D03*
X152400000Y-88435000D03*
X152400000Y-85895000D03*
X152400000Y-83355000D03*
X152400000Y-80815000D03*
X152400000Y-78275000D03*
X152400000Y-75735000D03*
X152400000Y-73195000D03*
X152400000Y-70655000D03*
X152400000Y-68115000D03*
X152400000Y-65575000D03*
%TD*%
D17*
%TO.C,OLED1*%
X160020000Y-66040000D03*
D18*
X162560000Y-66040000D03*
X165100000Y-66040000D03*
X167640000Y-66040000D03*
%TD*%
D21*
%TO.C,L7805*%
X167640000Y-99060000D03*
D22*
X170180000Y-99060000D03*
X172720000Y-99060000D03*
%TD*%
D23*
%TO.C,R5*%
X157480000Y-76200000D03*
X159480000Y-76200000D03*
%TD*%
D24*
%TO.C,C4*%
X162560000Y-93980000D03*
X160485000Y-93980000D03*
%TD*%
D25*
%TO.C,C1*%
X139700000Y-87397500D03*
X139700000Y-85322500D03*
%TD*%
D24*
%TO.C,C5*%
X162560000Y-91440000D03*
X160485000Y-91440000D03*
%TD*%
D23*
%TO.C,R1*%
X156480000Y-99060000D03*
X158480000Y-99060000D03*
%TD*%
%TO.C,R2*%
X139707500Y-66040000D03*
X141707500Y-66040000D03*
%TD*%
D25*
%TO.C,C3*%
X139700000Y-99060000D03*
X139700000Y-96985000D03*
%TD*%
D17*
%TO.C,TCOO500*%
X177800000Y-78740000D03*
D18*
X177800000Y-81280000D03*
X177800000Y-83820000D03*
X177800000Y-86360000D03*
X177800000Y-88900000D03*
X177800000Y-91440000D03*
%TD*%
D17*
%TO.C,MQ135*%
X177800000Y-66040000D03*
D18*
X177800000Y-68580000D03*
X177800000Y-71120000D03*
X177800000Y-73660000D03*
%TD*%
D26*
%TO.C,HIH1*%
X168910000Y-81535000D03*
X170180000Y-81535000D03*
X171450000Y-81535000D03*
D27*
X170180000Y-70610000D03*
%TD*%
D28*
%TO.C,MG812*%
X160020000Y-70560000D03*
X163120000Y-70560000D03*
X163120000Y-73660000D03*
X160020000Y-73660000D03*
%TD*%
M02*
