%TF.GenerationSoftware,KiCad,Pcbnew,7.0.10*%
%TF.CreationDate,2024-04-21T18:35:41+05:30*%
%TF.ProjectId,ESDP_Final,45534450-5f46-4696-9e61-6c2e6b696361,rev?*%
%TF.SameCoordinates,Original*%
%TF.FileFunction,Soldermask,Bot*%
%TF.FilePolarity,Negative*%
%FSLAX46Y46*%
G04 Gerber Fmt 4.6, Leading zero omitted, Abs format (unit mm)*
G04 Created by KiCad (PCBNEW 7.0.10) date 2024-04-21 18:35:41*
%MOMM*%
%LPD*%
G01*
G04 APERTURE LIST*
G04 Aperture macros list*
%AMRoundRect*
0 Rectangle with rounded corners*
0 $1 Rounding radius*
0 $2 $3 $4 $5 $6 $7 $8 $9 X,Y pos of 4 corners*
0 Add a 4 corners polygon primitive as box body*
4,1,4,$2,$3,$4,$5,$6,$7,$8,$9,$2,$3,0*
0 Add four circle primitives for the rounded corners*
1,1,$1+$1,$2,$3*
1,1,$1+$1,$4,$5*
1,1,$1+$1,$6,$7*
1,1,$1+$1,$8,$9*
0 Add four rect primitives between the rounded corners*
20,1,$1+$1,$2,$3,$4,$5,0*
20,1,$1+$1,$4,$5,$6,$7,0*
20,1,$1+$1,$6,$7,$8,$9,0*
20,1,$1+$1,$8,$9,$2,$3,0*%
G04 Aperture macros list end*
%ADD10O,1.524000X1.524000*%
%ADD11R,1.700000X1.700000*%
%ADD12O,1.700000X1.700000*%
%ADD13RoundRect,0.102000X-0.625000X-0.625000X0.625000X-0.625000X0.625000X0.625000X-0.625000X0.625000X0*%
%ADD14C,1.454000*%
%ADD15R,1.905000X2.000000*%
%ADD16O,1.905000X2.000000*%
%ADD17C,2.286000*%
G04 APERTURE END LIST*
D10*
%TO.C,16MHZ_C1*%
X139700000Y-73760000D03*
X139700000Y-78640000D03*
%TD*%
D11*
%TO.C,J1*%
X177800000Y-96520000D03*
D12*
X177800000Y-99060000D03*
%TD*%
D13*
%TO.C,U3*%
X144526000Y-65575000D03*
D14*
X144526000Y-68115000D03*
X144526000Y-70655000D03*
X144526000Y-73195000D03*
X144526000Y-75735000D03*
X144526000Y-78275000D03*
X144526000Y-80815000D03*
X144526000Y-83355000D03*
X144526000Y-85895000D03*
X144526000Y-88435000D03*
X144526000Y-90975000D03*
X144526000Y-93515000D03*
X144526000Y-96055000D03*
X144526000Y-98595000D03*
X152400000Y-98595000D03*
X152400000Y-96055000D03*
X152400000Y-93515000D03*
X152400000Y-90975000D03*
X152400000Y-88435000D03*
X152400000Y-85895000D03*
X152400000Y-83355000D03*
X152400000Y-80815000D03*
X152400000Y-78275000D03*
X152400000Y-75735000D03*
X152400000Y-73195000D03*
X152400000Y-70655000D03*
X152400000Y-68115000D03*
X152400000Y-65575000D03*
%TD*%
D11*
%TO.C,OLED1*%
X160020000Y-66040000D03*
D12*
X162560000Y-66040000D03*
X165100000Y-66040000D03*
X167640000Y-66040000D03*
%TD*%
D15*
%TO.C,L7805*%
X167640000Y-99060000D03*
D16*
X170180000Y-99060000D03*
X172720000Y-99060000D03*
%TD*%
D11*
%TO.C,TCOO500*%
X177800000Y-78740000D03*
D12*
X177800000Y-81280000D03*
X177800000Y-83820000D03*
X177800000Y-86360000D03*
X177800000Y-88900000D03*
X177800000Y-91440000D03*
%TD*%
D11*
%TO.C,MQ135*%
X177800000Y-66040000D03*
D12*
X177800000Y-68580000D03*
X177800000Y-71120000D03*
X177800000Y-73660000D03*
%TD*%
D17*
%TO.C,MG812*%
X160020000Y-70560000D03*
X163120000Y-70560000D03*
X163120000Y-73660000D03*
X160020000Y-73660000D03*
%TD*%
M02*
