M48
; DRILL file {KiCad 7.0.10} date Sun Apr 21 18:35:49 2024
; FORMAT={-:-/ absolute / inch / decimal}
; #@! TF.CreationDate,2024-04-21T18:35:49+05:30
; #@! TF.GenerationSoftware,Kicad,Pcbnew,7.0.10
; #@! TF.FileFunction,Plated,1,4,PTH
FMAT,2
INCH
; #@! TA.AperFunction,Plated,PTH,ViaDrill
T1C0.0157
; #@! TA.AperFunction,Plated,PTH,ComponentDrill
T2C0.0236
; #@! TA.AperFunction,Plated,PTH,ComponentDrill
T3C0.0300
; #@! TA.AperFunction,Plated,PTH,ComponentDrill
T4C0.0327
; #@! TA.AperFunction,Plated,PTH,ComponentDrill
T5C0.0394
; #@! TA.AperFunction,Plated,PTH,ComponentDrill
T6C0.0433
%
G90
G05
T1
X5.6Y-3.2
X5.6Y-3.4
X5.6Y-3.6
X5.7Y-4.0
X5.8Y-2.5
X6.1Y-3.0
X6.2Y-2.7
X6.4Y-3.0285
X6.5Y-2.5
T2
X6.3Y-2.778
X6.3Y-2.9
X6.422Y-2.778
X6.422Y-2.9
T4
X5.69Y-2.5817
X5.69Y-2.6817
X5.69Y-2.7817
X5.69Y-2.8817
X5.69Y-2.9817
X5.69Y-3.0817
X5.69Y-3.1817
X5.69Y-3.2817
X5.69Y-3.3817
X5.69Y-3.4817
X5.69Y-3.5817
X5.69Y-3.6817
X5.69Y-3.7817
X5.69Y-3.8817
X6.0Y-2.5817
X6.0Y-2.6817
X6.0Y-2.7817
X6.0Y-2.8817
X6.0Y-2.9817
X6.0Y-3.0817
X6.0Y-3.1817
X6.0Y-3.2817
X6.0Y-3.3817
X6.0Y-3.4817
X6.0Y-3.5817
X6.0Y-3.6817
X6.0Y-3.7817
X6.0Y-3.8817
T5
X6.3Y-2.6
X6.4Y-2.6
X6.5Y-2.6
X6.6Y-2.6
X7.0Y-2.6
X7.0Y-2.7
X7.0Y-2.8
X7.0Y-2.9
X7.0Y-3.1
X7.0Y-3.2
X7.0Y-3.3
X7.0Y-3.4
X7.0Y-3.5
X7.0Y-3.6
X7.0Y-3.8
X7.0Y-3.9
T6
X6.6Y-3.9
X6.7Y-3.9
X6.8Y-3.9
T3
G00X5.5Y-2.9039
M15
G01X5.5Y-2.9039
M16
G05
G00X5.5Y-3.0961
M15
G01X5.5Y-3.0961
M16
G05
M30
